<svg width="18" height="19" viewBox="0 0 18 19" fill="none" xmlns="http://www.w3.org/2000/svg">
<path d="M8.88307 5.93713C7.10113 5.93713 5.65784 7.38043 5.65784 9.16237C5.65784 10.9443 7.10113 12.3876 8.88307 12.3876C10.665 12.3876 12.1083 10.9443 12.1083 9.16237C12.1083 7.38043 10.665 5.93713 8.88307 5.93713ZM16.0915 8.35606C15.7206 4.99375 13.0517 2.32487 9.68938 1.95397V1.09928C9.68938 0.655808 9.32654 0.292969 8.88307 0.292969C8.4396 0.292969 8.07676 0.655808 8.07676 1.09928V1.95397C4.71445 2.32487 2.04557 4.99375 1.67467 8.35606H0.819981C0.376511 8.35606 0.0136719 8.7189 0.0136719 9.16237C0.0136719 9.60584 0.376511 9.96868 0.819981 9.96868H1.67467C2.04557 13.331 4.71445 15.9999 8.07676 16.3708V17.2255C8.07676 17.6689 8.4396 18.0318 8.88307 18.0318C9.32654 18.0318 9.68938 17.6689 9.68938 17.2255V16.3708C13.0517 15.9999 15.7206 13.331 16.0915 9.96868H16.9462C17.3896 9.96868 17.7525 9.60584 17.7525 9.16237C17.7525 8.7189 17.3896 8.35606 16.9462 8.35606H16.0915ZM8.88307 14.8065C5.76266 14.8065 3.23891 12.2828 3.23891 9.16237C3.23891 6.04195 5.76266 3.51821 8.88307 3.51821C12.0035 3.51821 14.5272 6.04195 14.5272 9.16237C14.5272 12.2828 12.0035 14.8065 8.88307 14.8065Z" fill="white"/>
</svg>
