<svg width="20" height="25" viewBox="0 0 20 25" fill="none" xmlns="http://www.w3.org/2000/svg">
<path d="M10.0774 24.5C11.4978 24.5 12.66 23.3923 12.66 22.0385H7.49472C7.49472 22.6913 7.76682 23.3174 8.25116 23.779C8.7355 24.2407 9.39241 24.5 10.0774 24.5ZM17.8253 17.1154V10.9615C17.8253 7.18308 15.7075 4.02 12.0144 3.18308V2.34615C12.0144 1.32462 11.1492 0.5 10.0774 0.5C9.00557 0.5 8.14038 1.32462 8.14038 2.34615V3.18308C4.43428 4.02 2.32942 7.17077 2.32942 10.9615V17.1154L0.66361 18.7031C-0.149925 19.4785 0.418258 20.8077 1.56754 20.8077H18.5743C19.7236 20.8077 20.3047 19.4785 19.4911 18.7031L17.8253 17.1154Z" fill="#878787"/>
</svg>
