<svg width="19" height="23" viewBox="0 0 19 23" fill="none" xmlns="http://www.w3.org/2000/svg">
<path d="M10.4534 5.9461C11.1534 5.7061 11.6734 5.0461 11.7534 4.3061C11.8034 3.8361 11.7034 3.3961 11.4734 3.0361L10.1934 0.816104C10.0034 0.486104 9.52344 0.486104 9.32344 0.816104L8.04344 3.0361C7.87344 3.3361 7.77344 3.6861 7.77344 4.0661C7.77344 5.3861 9.07344 6.4161 10.4534 5.9461ZM14.3034 15.9861L13.3034 14.9861L12.2234 16.0561C10.9234 17.3561 8.64344 17.3661 7.33344 16.0561L6.26344 14.9861L5.17344 16.0561C4.52344 16.7061 3.65344 17.0661 2.73344 17.0661C2.00344 17.0661 1.33344 16.8361 0.773438 16.4561V20.0661C0.773438 21.1661 1.67344 22.0661 2.77344 22.0661H16.7734C17.8734 22.0661 18.7734 21.1661 18.7734 20.0661V16.4561C18.0234 16.9661 17.0634 17.2061 16.0334 16.9761C15.3734 16.8361 14.7834 16.4661 14.3034 15.9861ZM15.7734 9.0661H10.7734V8.0661C10.7734 7.5161 10.3234 7.0661 9.77344 7.0661C9.22344 7.0661 8.77344 7.5161 8.77344 8.0661V9.0661H3.77344C2.11344 9.0661 0.773438 10.4061 0.773438 12.0661V13.5261C0.773438 14.3761 1.27344 15.1961 2.08344 15.4661C2.81344 15.7061 3.60344 15.5261 4.11344 15.0061L6.25344 12.8761L8.38344 15.0061C9.14344 15.7661 10.3934 15.7661 11.1534 15.0061L13.2934 12.8761L15.4234 15.0061C15.8534 15.4361 16.4534 15.6361 17.0734 15.5561C18.0634 15.4261 18.7634 14.4961 18.7634 13.4961V12.0761C18.7734 10.4061 17.4334 9.0661 15.7734 9.0661Z" fill="#545454"/>
</svg>
