<svg width="17" height="20" viewBox="0 0 17 20" fill="none" xmlns="http://www.w3.org/2000/svg">
<path d="M14.9078 0.857666H2.90472C2.36471 0.868835 1.85116 1.09363 1.47661 1.48279C1.10206 1.87195 0.897073 2.39372 0.906566 2.93376V17.6435C0.901872 17.9106 0.949837 18.176 1.04772 18.4245C1.14561 18.673 1.29149 18.8998 1.47704 19.092C1.6626 19.2841 1.88418 19.4378 2.12915 19.5443C2.37411 19.6508 2.63765 19.7079 2.90472 19.7125H14.9078C15.1749 19.7079 15.4384 19.6508 15.6834 19.5443C15.9283 19.4378 16.1499 19.2841 16.3355 19.092C16.521 18.8998 16.6669 18.673 16.7648 18.4245C16.8627 18.176 16.9106 17.9106 16.9059 17.6435V2.93376C16.9154 2.39372 16.7104 1.87195 16.3359 1.48279C15.9613 1.09363 15.4478 0.868835 14.9078 0.857666ZM3.34402 4.443C3.37502 4.41151 3.41196 4.38649 3.45272 4.36942C3.49347 4.35235 3.53721 4.34356 3.58139 4.34356C3.62558 4.34356 3.66932 4.35235 3.71007 4.36942C3.75082 4.38649 3.78777 4.41151 3.81876 4.443L4.03133 4.65557L4.7399 3.947C4.80353 3.90666 4.87838 3.88765 4.95356 3.89275C5.02874 3.89784 5.10034 3.92678 5.15795 3.97535C5.21984 4.03886 5.25448 4.12403 5.25448 4.21272C5.25448 4.3014 5.21984 4.38657 5.15795 4.45008L4.26516 5.36413C4.23592 5.39689 4.19979 5.42278 4.15936 5.43993C4.11893 5.45708 4.07521 5.46507 4.03133 5.46333C3.98751 5.46459 3.94394 5.45638 3.90359 5.43926C3.86324 5.42214 3.82705 5.39651 3.79751 5.36413L3.34402 4.91774C3.28527 4.85264 3.25275 4.76806 3.25275 4.68037C3.25275 4.59267 3.28527 4.5081 3.34402 4.443ZM4.22264 13.3071C4.01103 13.3071 3.80417 13.2444 3.62822 13.1268C3.45227 13.0093 3.31514 12.8421 3.23416 12.6466C3.15318 12.4511 3.13199 12.236 3.17327 12.0285C3.21455 11.8209 3.31646 11.6303 3.46609 11.4806C3.61572 11.331 3.80636 11.2291 4.01391 11.1878C4.22146 11.1465 4.43658 11.1677 4.63209 11.2487C4.82759 11.3297 4.99469 11.4668 5.11226 11.6428C5.22983 11.8187 5.29258 12.0256 5.29258 12.2372C5.29258 12.521 5.17985 12.7931 4.9792 12.9938C4.77855 13.1944 4.50641 13.3071 4.22264 13.3071ZM4.22264 9.31083C4.01213 9.31083 3.80636 9.24831 3.63143 9.13121C3.45649 9.0141 3.32027 8.84769 3.24004 8.65307C3.15981 8.45844 3.13918 8.24438 3.18077 8.03802C3.22236 7.83165 3.32429 7.64229 3.47364 7.49393C3.62299 7.34558 3.81303 7.24491 4.01967 7.20471C4.22631 7.1645 4.44023 7.18656 4.63431 7.26809C4.82839 7.34963 4.99389 7.48696 5.10982 7.66267C5.22575 7.83838 5.28689 8.04456 5.28549 8.25507C5.28363 8.5345 5.1718 8.80196 4.97421 8.99956C4.77662 9.19715 4.50916 9.30898 4.22973 9.31083H4.22264ZM11.0319 12.5561H6.63176C6.54344 12.5561 6.45873 12.521 6.39628 12.4585C6.33382 12.3961 6.29874 12.3114 6.29874 12.223C6.29874 12.1347 6.33382 12.05 6.39628 11.9875C6.45873 11.9251 6.54344 11.89 6.63176 11.89H11.039C11.1274 11.89 11.2121 11.9251 11.2745 11.9875C11.337 12.05 11.3721 12.1347 11.3721 12.223C11.3721 12.3114 11.337 12.3961 11.2745 12.4585C11.2121 12.521 11.1274 12.5561 11.039 12.5561H11.0319ZM14.759 8.5881H6.63176C6.544 8.58629 6.46035 8.55062 6.39828 8.48855C6.33621 8.42649 6.30055 8.34283 6.29874 8.25507C6.30415 8.17048 6.34161 8.09114 6.40348 8.03321C6.46536 7.97529 6.547 7.94313 6.63176 7.9433H14.7661C14.8101 7.94234 14.8538 7.95029 14.8947 7.96668C14.9355 7.98308 14.9726 8.00757 15.0037 8.03869C15.0348 8.06981 15.0593 8.10691 15.0757 8.14775C15.0921 8.18859 15.1001 8.23233 15.0991 8.27633C15.0937 8.36092 15.0562 8.44026 14.9943 8.49819C14.9325 8.55612 14.8508 8.58827 14.7661 8.5881H14.759ZM14.759 5.04528H6.63176C6.54344 5.04528 6.45873 5.01019 6.39628 4.94774C6.33382 4.88528 6.29874 4.80058 6.29874 4.71225C6.29874 4.62393 6.33382 4.53922 6.39628 4.47677C6.45873 4.41431 6.54344 4.37923 6.63176 4.37923H14.7661C14.8544 4.37923 14.9391 4.41431 15.0016 4.47677C15.064 4.53922 15.0991 4.62393 15.0991 4.71225C15.0991 4.80058 15.064 4.88528 15.0016 4.94774C14.9391 5.01019 14.8544 5.04528 14.7661 5.04528H14.759Z" fill="#E61C5C"/>
</svg>
