<svg width="72" height="73" viewBox="0 0 72 73" fill="none" xmlns="http://www.w3.org/2000/svg">
<path d="M52.1657 47.3178L40.107 36.3635H32.0181L19.9594 47.3178C16.5866 50.3624 15.4822 55.0485 17.1239 59.287C18.7655 63.4956 22.7652 66.2118 27.2723 66.2118H44.8529C49.3898 66.2118 53.3597 63.4956 55.0013 59.287C56.643 55.0485 55.5386 50.3624 52.1657 47.3178ZM41.5099 54.6904H30.6451C29.5109 54.6904 28.6154 53.7651 28.6154 52.6607C28.6154 51.5563 29.5407 50.631 30.6451 50.631H41.5099C42.6441 50.631 43.5396 51.5563 43.5396 52.6607C43.5396 53.7651 42.6143 54.6904 41.5099 54.6904Z" fill="#FCE2AF"/>
<path d="M55.0313 13.4399C53.3897 9.23133 49.39 6.51514 44.8829 6.51514H27.2724C22.7653 6.51514 18.7657 9.23133 17.124 13.4399C15.5122 17.6784 16.6166 22.3646 19.9895 25.4091L32.0482 36.3634H40.137L52.1957 25.4091C55.5387 22.3646 56.6431 17.6784 55.0313 13.4399ZM41.5101 22.1258H30.6453C29.5111 22.1258 28.6156 21.2005 28.6156 20.0961C28.6156 18.9917 29.5409 18.0664 30.6453 18.0664H41.5101C42.6443 18.0664 43.5397 18.9917 43.5397 20.0961C43.5397 21.2005 42.6144 22.1258 41.5101 22.1258Z" fill="#FCE2AF"/>
</svg>
