<svg width="25" height="25" viewBox="0 0 25 25" fill="none" xmlns="http://www.w3.org/2000/svg">
<path d="M12.2808 0.5C5.65676 0.5 0.280762 5.876 0.280762 12.5C0.280762 19.124 5.65676 24.5 12.2808 24.5C18.9048 24.5 24.2808 19.124 24.2808 12.5C24.2808 5.876 18.9048 0.5 12.2808 0.5ZM12.2808 18.5C11.6208 18.5 11.0808 17.96 11.0808 17.3V12.5C11.0808 11.84 11.6208 11.3 12.2808 11.3C12.9408 11.3 13.4808 11.84 13.4808 12.5V17.3C13.4808 17.96 12.9408 18.5 12.2808 18.5ZM13.4808 8.9H11.0808V6.5H13.4808V8.9Z" fill="#878787"/>
</svg>
